<svg width="20" height="33" viewBox="0 0 20 33" fill="none" xmlns="http://www.w3.org/2000/svg">
<path fill-rule="evenodd" clip-rule="evenodd" d="M1.01428 18.9673C0.365196 18.3181 0.000610806 17.438 0.000610806 16.5204C0.000610806 15.6028 0.365196 14.7228 1.01428 14.0735L14.0837 1.0127C14.7339 0.363436 15.6157 -0.00119292 16.5351 -0.000976466C17.4544 -0.000760013 18.336 0.364284 18.9859 1.01385C19.6358 1.66342 20.0008 2.5443 20.0006 3.46271C20.0004 4.38112 19.635 5.26183 18.9848 5.91109L8.36468 16.5204L18.9848 27.1298C19.6164 27.7825 19.9662 28.657 19.9588 29.5649C19.9513 30.4728 19.5872 31.3414 18.9448 31.9837C18.3025 32.626 17.4333 32.9906 16.5245 32.9989C15.6157 33.0072 14.74 32.6586 14.086 32.0282L1.01197 18.9696L1.01428 18.9673Z" fill="white"/>
</svg>
