<svg width="12" height="12" viewBox="0 0 12 12" fill="none" xmlns="http://www.w3.org/2000/svg">
<path d="M11.0625 3.625H1.4375C1.19588 3.625 1 3.82088 1 4.0625V10.625C1 10.8666 1.19588 11.0625 1.4375 11.0625H11.0625C11.3041 11.0625 11.5 10.8666 11.5 10.625V4.0625C11.5 3.82088 11.3041 3.625 11.0625 3.625Z" stroke="black" stroke-linecap="round" stroke-linejoin="round"/>
<path d="M4.0625 4.9375V3.1875C4.0625 2.60734 4.29297 2.05094 4.7032 1.6407C5.11344 1.23047 5.66984 1 6.25 1C6.83016 1 7.38656 1.23047 7.7968 1.6407C8.20703 2.05094 8.4375 2.60734 8.4375 3.1875V4.9375" stroke="black" stroke-linecap="round" stroke-linejoin="round"/>
</svg>
