<svg width="21" height="34" viewBox="0 0 21 34" fill="none" xmlns="http://www.w3.org/2000/svg">
<path fill-rule="evenodd" clip-rule="evenodd" d="M19.8065 14.5073C20.4556 15.1565 20.8202 16.0366 20.8202 16.9542C20.8202 17.8718 20.4556 18.7518 19.8065 19.4011L6.73709 32.4619C6.08686 33.1112 5.20509 33.4758 4.28575 33.4756C3.36641 33.4754 2.48481 33.1103 1.83489 32.4608C1.18497 31.8112 0.819974 30.9303 0.820191 30.0119C0.820407 29.0935 1.18582 28.2128 1.83605 27.5635L12.4561 16.9542L1.83605 6.34485C1.20436 5.69209 0.854577 4.8176 0.862043 3.90972C0.869509 3.00184 1.23362 2.1332 1.87596 1.49091C2.5183 0.84861 3.38747 0.484044 4.29626 0.47573C5.20506 0.467416 6.08077 0.816019 6.73477 1.44645L19.8088 14.505L19.8065 14.5073Z" fill="white"/>
</svg>
