<svg width="12" height="12" viewBox="0 0 12 12" fill="none" xmlns="http://www.w3.org/2000/svg">
<path d="M8.09375 5.25C8.09375 5.72591 7.95263 6.19113 7.68823 6.58684C7.42382 6.98255 7.04802 7.29096 6.60833 7.47308C6.16865 7.65521 5.68483 7.70286 5.21807 7.61001C4.7513 7.51717 4.32255 7.288 3.98603 6.95148C3.64951 6.61496 3.42033 6.1862 3.32749 5.71944C3.23464 5.25267 3.28229 4.76885 3.46442 4.32917C3.64654 3.88948 3.95496 3.51368 4.35066 3.24928C4.74637 2.98487 5.21159 2.84375 5.6875 2.84375C6.32546 2.84447 6.93708 3.09822 7.38818 3.54932C7.83928 4.00043 8.09303 4.61204 8.09375 5.25ZM11.375 5.6875C11.375 6.81238 11.0414 7.912 10.4165 8.8473C9.79154 9.78261 8.90327 10.5116 7.86401 10.9421C6.82476 11.3725 5.68119 11.4852 4.57793 11.2657C3.47466 11.0463 2.46124 10.5046 1.66583 9.70917C0.870422 8.91376 0.32874 7.90034 0.109286 6.79708C-0.110167 5.69381 0.00246431 4.55024 0.432938 3.51099C0.863411 2.47173 1.59239 1.58347 2.5277 0.958517C3.463 0.333566 4.56262 0 5.6875 0C7.19543 0.0015924 8.64115 0.601321 9.70741 1.66759C10.7737 2.73386 11.3734 4.17957 11.375 5.6875ZM10.5 5.6875C10.4993 5.03974 10.368 4.39878 10.1139 3.80295C9.85978 3.20711 9.48813 2.66864 9.02115 2.21973C8.55417 1.77082 8.00145 1.4207 7.39606 1.19031C6.79066 0.959912 6.14502 0.853973 5.49774 0.878828C2.92196 0.978359 0.867893 3.12375 0.875003 5.70117C0.877472 6.87451 1.31022 8.00618 2.09125 8.8818C2.40933 8.42046 2.81337 8.02477 3.28125 7.71641C3.32114 7.69006 3.36857 7.6775 3.41627 7.68067C3.46397 7.68383 3.50933 7.70253 3.54539 7.73391C4.13994 8.24816 4.89977 8.53117 5.68586 8.53117C6.47196 8.53117 7.23178 8.24816 7.82633 7.73391C7.8624 7.70253 7.90775 7.68383 7.95545 7.68067C8.00316 7.6775 8.05058 7.69006 8.09047 7.71641C8.55895 8.02461 8.96355 8.4203 9.28211 8.8818C10.067 8.00299 10.5006 6.86579 10.5 5.6875Z" fill="black"/>
</svg>
